<svg width="23" height="33" viewBox="0 0 23 33" fill="none" xmlns="http://www.w3.org/2000/svg">
<path d="M0.931152 33V28.8252C2.8501 27.2285 4.71777 25.6538 6.53418 24.1011C8.35059 22.5337 9.96924 20.9883 11.3901 19.4648C12.8257 17.9268 13.9683 16.4326 14.8179 14.9824C15.6821 13.5176 16.1143 12.0967 16.1143 10.7197C16.1143 9.43066 15.7554 8.29541 15.0376 7.31396C14.3345 6.31787 13.1772 5.81982 11.5659 5.81982C9.91064 5.81982 8.6582 6.36182 7.80859 7.4458C6.97363 8.51514 6.55615 9.81885 6.55615 11.3569H0.975098C1.03369 9.04248 1.54639 7.11621 2.51318 5.57812C3.47998 4.02539 4.75439 2.86816 6.33643 2.10645C7.93311 1.34473 9.72021 0.963867 11.6978 0.963867C14.9058 0.963867 17.4033 1.84277 19.1904 3.60059C20.9775 5.34375 21.8711 7.61426 21.8711 10.4121C21.8711 12.1553 21.4683 13.8545 20.6626 15.5098C19.8716 17.1504 18.8315 18.7397 17.5425 20.2778C16.2534 21.8013 14.8545 23.2295 13.3457 24.5625C11.8516 25.8955 10.4014 27.1333 8.99512 28.2759H22.6401V33H0.931152Z" fill="#D9DBE0"/>
</svg>
