<svg width="23" height="33" viewBox="0 0 23 33" fill="none" xmlns="http://www.w3.org/2000/svg">
<path d="M0.0742188 22.0903H5.74316C5.86035 23.6431 6.39502 24.9248 7.34717 25.9355C8.29932 26.9463 9.66895 27.4517 11.4561 27.4517C13.1699 27.4517 14.5176 26.9683 15.499 26.0015C16.4951 25.02 16.9932 23.6724 16.9932 21.9585C16.9932 20.2446 16.4585 18.8896 15.3892 17.8936C14.3345 16.8828 12.877 16.3774 11.0166 16.3774H6.55615V12.5542L14.1147 5.41309H1.87598V0.491211H21.1899V4.86377L12.9502 12.5542C15.9238 12.7593 18.2603 13.6968 19.9595 15.3667C21.6733 17.0366 22.5303 19.2925 22.5303 22.1343C22.5303 24.1704 22.0688 25.9502 21.146 27.4736C20.2378 28.9971 18.9561 30.1763 17.3008 31.0112C15.6602 31.8462 13.6973 32.2637 11.4121 32.2637C9.31738 32.2637 7.43506 31.8975 5.76514 31.165C4.10986 30.4326 2.77686 29.3193 1.76611 27.8252C0.77002 26.3164 0.206055 24.4048 0.0742188 22.0903Z" fill="#D9DBE0"/>
</svg>
