<svg width="24" height="33" viewBox="0 0 24 33" fill="none" xmlns="http://www.w3.org/2000/svg">
<path d="M0.381836 23.145H6.00684C6.27051 24.4341 6.92969 25.5034 7.98438 26.353C9.03906 27.2026 10.3428 27.6274 11.8955 27.6274C13.5801 27.6274 14.9497 27.0122 16.0044 25.7817C17.0737 24.5513 17.6084 23.0205 17.6084 21.1895C17.6084 19.2998 17.0737 17.8057 16.0044 16.707C14.9497 15.5938 13.6094 15.0371 11.9834 15.0371C10.6357 15.0371 9.46387 15.3667 8.46777 16.0259C7.48633 16.6851 6.7832 17.5127 6.3584 18.5088H0.843262L3.52393 0.491211H20.9922V5.54492H7.85254L6.40234 12.8398C7.06152 12.1221 7.9624 11.5288 9.10498 11.0601C10.2476 10.5913 11.522 10.3569 12.9282 10.3569C15.1841 10.3569 17.0591 10.8623 18.5532 11.873C20.062 12.8691 21.2046 14.1875 21.981 15.8281C22.7573 17.4541 23.1455 19.2266 23.1455 21.1455C23.1455 23.3428 22.6694 25.2983 21.7173 27.0122C20.7798 28.7114 19.4614 30.0591 17.7622 31.0552C16.0776 32.0513 14.1221 32.5493 11.8955 32.5493C9.58105 32.5493 7.58887 32.1465 5.91895 31.3408C4.26367 30.5205 2.95996 29.3999 2.00781 27.979C1.07031 26.5435 0.52832 24.9321 0.381836 23.145Z" fill="#D9DBE0"/>
</svg>
