<svg width="23" height="33" viewBox="0 0 23 33" fill="none" xmlns="http://www.w3.org/2000/svg">
<path d="M0.0522461 21.4312C0.0522461 19.8052 0.323242 18.2012 0.865234 16.6191C1.40723 15.0225 2.29346 13.3232 3.52393 11.5215L10.9507 0.491211H17.4766L9.87402 11.3896C10.3281 11.2725 10.7822 11.1846 11.2363 11.126C11.7051 11.0674 12.1958 11.0381 12.7085 11.0381C14.686 11.0381 16.4438 11.4556 17.9819 12.2905C19.5347 13.1255 20.7432 14.3267 21.6074 15.894C22.4863 17.4468 22.9258 19.3071 22.9258 21.4751C22.9258 23.7017 22.4277 25.6426 21.4316 27.2979C20.4502 28.9385 19.1025 30.2275 17.3887 31.165C15.6895 32.0879 13.7412 32.5493 11.5439 32.5493C9.25879 32.5493 7.25195 32.0732 5.52344 31.1211C3.79492 30.1543 2.44727 28.8286 1.48047 27.144C0.52832 25.4595 0.0522461 23.5552 0.0522461 21.4312ZM5.6333 21.519C5.6333 23.3501 6.16797 24.8223 7.2373 25.9355C8.30664 27.0342 9.74219 27.5835 11.5439 27.5835C13.3457 27.5835 14.7739 27.0342 15.8286 25.9355C16.8979 24.8223 17.4326 23.3501 17.4326 21.519C17.4326 19.688 16.8979 18.2231 15.8286 17.1245C14.7593 16.0259 13.3311 15.4766 11.5439 15.4766C9.74219 15.4766 8.30664 16.0259 7.2373 17.1245C6.16797 18.2231 5.6333 19.688 5.6333 21.519Z" fill="#D9DBE0"/>
</svg>
