<svg width="24" height="24" viewBox="0 0 24 24" fill="none" xmlns="http://www.w3.org/2000/svg">
<path d="M24 12.0051C24 18.6336 18.6336 24 12.0051 24C5.37666 24 0 18.6233 0 12.0051C0 5.37666 5.3664 0 12.0051 0C18.6233 0 24 5.37666 24 12.0051Z" fill="#F20000"/>
<path d="M8.69032 9.71878C8.94902 9.66763 9.14802 9.8313 9.12812 10.0768C9.10822 10.3223 8.87937 10.5678 8.62067 10.619C8.36197 10.6701 8.16297 10.5064 8.18287 10.2507C8.20277 10.0052 8.42167 9.76993 8.69032 9.71878ZM5.88442 11.4987C6.11327 10.6394 6.38192 9.74947 6.65057 9.09479C6.10332 9.8313 5.52622 10.7622 4.99887 11.693C5.29737 11.6112 5.59587 11.5498 5.88442 11.4987ZM10.5211 10.8235C10.7201 10.7826 11.1778 11.0691 10.9589 11.335C10.7301 11.601 10.4714 11.5498 10.0734 11.7237C9.84452 11.826 9.67537 12.0306 9.42662 12.3989C9.10822 12.8796 8.96892 13.3502 8.93907 13.698C8.93907 13.8003 8.92912 13.8514 8.87937 13.8924C8.35202 14.2504 8.18287 13.9844 8.19282 13.6571C8.19282 13.5752 8.22267 13.4525 8.27242 13.3093C7.86447 13.9435 7.49632 14.2606 7.26747 14.3015C6.94907 14.3629 6.76997 14.1379 6.79982 13.7185C6.81972 13.5241 6.86947 13.3093 6.97892 13.0229C7.08837 12.7364 7.25752 12.3477 7.41672 12.0204C7.45652 11.9385 7.49632 11.8567 7.52617 11.7851C7.28737 11.8363 6.93912 11.9079 6.54112 11.9999C6.54112 12.0102 6.53117 12.0204 6.53117 12.0204C6.36202 12.8387 6.34212 13.1558 6.25257 13.8617C6.21277 14.1788 6.27247 14.5163 5.91427 14.5675C5.55607 14.6186 5.43667 14.2401 5.42672 13.9026C5.42672 13.5752 5.48642 13.1661 5.71527 12.1943C5.33717 12.2966 4.93917 12.4091 4.54117 12.5318C4.53122 12.5421 4.53122 12.5421 4.53122 12.5421C3.87452 13.7696 3.22777 15.2938 3.12827 15.7848C3.03872 16.1837 2.86957 16.2962 2.61087 16.1837C2.35217 16.0712 2.21287 15.8052 2.30242 15.5086C2.47157 14.9767 2.97902 13.7901 3.43672 12.941C3.43672 12.941 3.43672 12.9308 3.44667 12.9103C3.11832 13.0433 2.79992 13.1865 2.53127 13.34C2.35217 13.4423 2.12332 13.3502 2.08352 13.1456C2.05367 13.0024 1.98402 12.716 2.33227 12.5523C2.85962 12.317 3.42677 12.1124 3.98397 11.9488C5.18792 9.87222 6.68042 7.73429 7.10827 7.76497C7.29732 7.78543 7.26747 7.99002 7.42667 8.17415C7.58587 8.35828 7.61572 8.4708 7.41672 8.97204C7.01872 9.98474 7.04857 9.74947 6.67047 11.335C7.36697 11.2123 7.97392 11.1509 8.03362 11.1407C8.22267 11.11 8.56097 11.2532 8.38187 11.6317C8.38187 11.6317 8.19282 11.9692 8.12317 12.1124C7.99382 12.3477 7.82467 12.7057 7.71522 12.941C7.64557 13.0842 7.61572 13.1865 7.61572 13.2684C7.61572 13.3195 7.62567 13.3502 7.66547 13.34C7.72517 13.3297 7.79482 13.2684 7.89432 13.1661C7.98387 13.0535 8.29232 12.7876 8.84952 11.826L8.99877 11.5191C9.04852 11.4271 9.10822 11.2634 9.12812 11.1918C9.13807 11.0793 9.14802 11.0486 9.23757 10.9872C9.38682 10.8952 9.64552 10.8133 9.80472 10.9156C9.94402 11.0179 9.91417 11.1918 9.79477 11.4066C10.2923 10.8645 10.4117 10.844 10.5211 10.8235ZM19.9935 12.4398C20.2622 12.092 20.69 11.3043 20.7099 11.0895C20.7199 10.9872 20.69 10.9463 20.6204 10.9565C20.5308 10.9668 20.3119 11.1509 20.1129 11.3964C19.8144 11.7544 19.4264 12.4807 19.3965 12.7262C19.3866 12.8285 19.4164 12.8899 19.4861 12.8796C19.5955 12.8694 19.7846 12.7057 19.9935 12.4398ZM21.6253 11.8772C21.7447 11.6828 21.9935 11.7442 21.9338 11.9283C21.8741 12.0818 21.7646 12.3273 21.486 12.6648C21.1378 13.0945 20.8293 13.3093 20.5408 13.3502C20.3119 13.3809 20.1527 13.2786 20.1129 13.074L20.103 13.0331C20.103 12.9922 20.0831 12.9819 20.0632 12.9819C20.0433 12.9819 20.0234 13.0024 19.9836 13.0331C19.695 13.3502 19.4761 13.5446 19.2075 13.5752C18.8095 13.6264 18.5707 13.3093 18.6304 12.8387C18.5209 13.0024 18.4115 13.1558 18.312 13.2684C18.0035 13.6264 17.7448 13.8514 17.506 13.8821C17.1876 13.923 17.0185 13.6878 17.0682 13.2786C17.0881 13.0945 17.1578 12.8694 17.2772 12.5932C17.3966 12.317 17.5856 11.9283 17.7647 11.6214C17.904 11.3657 18.0433 11.0793 18.0533 10.977C18.0732 10.8952 18.0831 10.8849 18.1329 10.844C18.2025 10.7929 18.3518 10.7315 18.4413 10.7213C18.6702 10.7008 18.9687 10.8747 18.7697 11.2225L18.6901 11.3555C18.6801 11.3862 18.5408 11.6317 18.4612 11.7749C18.3219 12.0102 18.1329 12.3477 18.0135 12.583C17.9438 12.7262 17.904 12.8285 17.8941 12.9103C17.8841 12.9615 17.904 12.9922 17.9438 12.9819C17.9936 12.9717 18.0831 12.9206 18.1826 12.8183C18.2821 12.7057 18.3518 12.6341 18.5707 12.3273L18.6503 12.225C18.71 12.1329 19.2274 11.4475 19.3866 11.2736C19.8045 10.7622 20.2721 10.4041 20.5706 10.3632C20.7696 10.3325 20.9288 10.4246 21.0084 10.619C21.0582 10.7724 21.0681 10.7826 21.2074 10.844C21.4164 10.9258 21.486 11.0077 21.4761 11.11C21.4661 11.1918 21.4363 11.2532 21.3069 11.468C21.2074 11.6317 21.1079 11.826 21.0383 11.9795C20.8791 12.2966 20.7895 12.5114 20.9487 12.5728C21.0084 12.5932 21.1079 12.5318 21.2472 12.3886C21.4064 12.2147 21.5059 12.0613 21.6253 11.8772ZM18.8891 10.2712C19.1478 10.22 19.3766 9.98474 19.3965 9.72901C19.4164 9.4835 19.2174 9.31983 18.9587 9.37098C18.7 9.42213 18.4712 9.6574 18.4513 9.91314C18.4413 10.1484 18.6304 10.3121 18.8891 10.2712ZM14.9389 9.09479C14.4016 9.82107 13.8146 10.7519 13.2972 11.6828C13.6056 11.6112 13.8942 11.5498 14.1728 11.4987C14.4016 10.6292 14.6703 9.74947 14.9389 9.09479ZM15.0782 11.335C15.2374 11.3146 15.7349 11.2532 15.725 11.468C15.6951 11.826 15.5658 11.8158 15.118 11.9181C15.0285 11.9385 14.9389 11.959 14.8494 11.9795C14.8394 11.9999 14.8394 12.0204 14.8295 12.0204C14.6603 12.8387 14.6404 13.1558 14.5509 13.8617C14.5111 14.1788 14.5708 14.5163 14.2026 14.5675C13.8444 14.6186 13.7151 14.2401 13.7151 13.9026C13.7151 13.3195 14.0036 12.184 14.0036 12.184C13.6355 12.2761 13.2375 12.3886 12.8494 12.5114C12.3818 13.3297 11.5261 15.304 11.4166 15.795C11.3271 16.194 11.1579 16.3065 10.8992 16.194C10.6405 16.0814 10.5012 15.8155 10.5908 15.5188C10.8296 14.7005 11.7251 12.941 11.745 12.9103C11.4166 13.0433 11.0982 13.1968 10.8296 13.3502C10.6604 13.4423 10.4515 13.3502 10.4017 13.1456C10.3719 13.0024 10.3022 12.7057 10.6306 12.5625C11.148 12.317 11.7151 12.1124 12.2823 11.9488C13.4862 9.87222 14.9688 7.74451 15.4066 7.78543C15.5956 7.80589 15.5658 8.01048 15.725 8.19461C15.8842 8.37873 15.914 8.49126 15.715 8.9925C15.317 10.0052 15.3568 9.76993 14.9688 11.3555C14.9986 11.3452 15.0384 11.335 15.0782 11.335ZM15.6454 14.2095C15.9439 14.1788 16.8095 13.9844 16.8195 13.0024C16.8195 12.6239 16.4712 12.4193 16.3817 12.1636C16.3319 11.9999 16.3419 11.6624 16.5906 11.5601C16.8991 11.4373 16.9588 11.6419 17.0682 11.7953C17.108 11.8567 17.2573 11.8465 17.307 11.7953C17.3767 11.7237 17.4762 11.6112 17.516 11.4271C17.5558 11.2634 17.3767 10.977 16.8792 10.9974C16.7001 10.9974 16.4513 11.0384 16.1031 11.3759C15.9439 11.5294 15.4265 12.2659 15.8046 12.8899C15.9041 13.0638 16.1628 13.2684 15.9936 13.432C15.7449 13.6775 15.317 13.299 15.2275 13.1763C15.1877 13.1252 15.0882 13.0638 15.0185 13.1661C14.9787 13.2274 14.7897 13.5752 14.8195 13.7082C14.9091 14.1276 15.4165 14.2401 15.6454 14.2095Z" fill="white"/>
</svg>
