<svg width="20" height="20" viewBox="0 0 20 20" fill="none" xmlns="http://www.w3.org/2000/svg">
<path d="M14.7128 5.90561C14.602 5.7346 14.4677 5.61803 14.3426 5.53916C14.342 5.32688 14.328 5.02667 14.2775 4.68044C14.3116 4.26732 14.4308 1.99257 13.039 0.96696C12.1806 0.334337 11.2247 0 10.2748 0C9.5027 0 8.76742 0.219414 8.20424 0.6178C7.69707 0.976659 7.41772 1.36699 7.26986 1.64176C6.83249 1.65723 5.92638 1.83556 5.52562 2.99091C5.14644 4.08378 5.4526 4.75895 5.67778 5.07187C5.66305 5.25286 5.65774 5.41197 5.65737 5.53907C5.5323 5.61794 5.39798 5.73451 5.28717 5.90552C5.03646 6.29247 4.99382 6.81136 5.16035 7.4481C5.47172 8.63868 6.19832 8.90073 6.586 8.95334C6.82481 9.43079 7.34965 10.4065 7.87485 10.8968C8.08466 11.0926 8.35741 11.2578 8.68553 11.3881C9.10432 11.5543 9.54662 11.6386 10 11.6386C10.4534 11.6386 10.8957 11.5543 11.3145 11.3881C11.6426 11.2578 11.9153 11.0926 12.1252 10.8968C12.6504 10.4065 13.1752 9.43079 13.414 8.95334C13.8016 8.90073 14.5282 8.63859 14.8397 7.44801C15.0062 6.81145 14.9635 6.29247 14.7128 5.90561ZM13.9544 7.21661C13.7646 7.94237 13.4254 8.05071 13.2401 8.05071C13.2269 8.05071 13.217 8.04998 13.2112 8.04952C12.9994 7.99599 12.8036 8.10725 12.711 8.30645C12.5299 8.69587 11.9591 9.80026 11.5009 10.228C11.3749 10.3456 11.1985 10.4499 10.9769 10.5378C10.3551 10.7846 9.6448 10.7846 9.02307 10.5378C8.80146 10.4499 8.62514 10.3456 8.49915 10.228C8.04092 9.80026 7.47015 8.69587 7.28898 8.30645C7.21194 8.14083 7.0638 8.03625 6.89426 8.03625C6.85985 8.03625 6.82453 8.04055 6.78876 8.04961C6.7829 8.05016 6.77302 8.0508 6.75994 8.0508C6.57465 8.0508 6.23546 7.94237 6.0456 7.21679C5.95218 6.85967 5.95301 6.57483 6.0478 6.41489C6.10297 6.32193 6.1813 6.29064 6.20692 6.28259C6.45241 6.25596 6.60027 6.04103 6.57977 5.79334C6.57932 5.7873 6.5633 5.57466 6.58362 5.25103C6.89847 5.1157 7.40153 4.8488 7.82562 4.39076C8.04147 4.15752 8.1994 3.87177 8.31185 3.60963C8.61846 3.85997 9.05253 4.15414 9.62687 4.40832C10.6106 4.84367 12.5765 5.05074 13.4064 5.12146C13.4407 5.51647 13.4207 5.78602 13.4201 5.79243C13.3985 6.04084 13.5467 6.25596 13.793 6.28259C13.8186 6.29064 13.8969 6.32202 13.9521 6.41489C14.047 6.57474 14.0478 6.85958 13.9544 7.21661ZM16.8882 13.3268L12.8883 11.7269C12.7732 11.681 12.6445 11.6837 12.5312 11.7343C12.4181 11.7851 12.3304 11.8796 12.2883 11.9961L11.2828 14.7761L11.0837 14.2036L11.4005 13.4293C11.4581 13.2882 11.4418 13.1276 11.3568 13.001C11.2718 12.8744 11.1295 12.7985 10.977 12.7985H9.02307C8.87063 12.7985 8.72817 12.8744 8.64326 13.001C8.55825 13.1276 8.54197 13.2882 8.59961 13.4293L8.91638 14.2036L8.71728 14.7761L7.7118 11.9961C7.66971 11.8796 7.58196 11.785 7.46887 11.7343C7.35559 11.6836 7.22676 11.6809 7.11175 11.7269L3.11179 13.3268C1.8835 13.8181 1.08984 14.9904 1.08984 16.3134V19.5425C1.08984 19.7952 1.29471 20 1.54734 20H18.4527C18.7053 20 18.9102 19.7952 18.9102 19.5425V16.3134C18.9102 14.9904 18.1165 13.8182 16.8882 13.3268ZM16.7492 17.6335C16.7492 17.8862 16.5444 18.091 16.2917 18.091H13.2201C12.9675 18.091 12.7626 17.8862 12.7626 17.6335V16.207C12.7626 15.9543 12.9675 15.7495 13.2201 15.7495H16.2917C16.5444 15.7495 16.7492 15.9543 16.7492 16.207V17.6335Z" fill="#F3693F"/>
</svg>
