<svg width="43" height="50" viewBox="0 0 43 50" fill="none" xmlns="http://www.w3.org/2000/svg">
<path fill-rule="evenodd" clip-rule="evenodd" d="M0 21.25C0 9.525 9.525 0 21.25 0C32.975 0 42.5 9.525 42.5 21.25C42.5 32.5 34.65 44.15 22.5 50V42.5H21.25C9.525 42.5 0 32.975 0 21.25ZM18.75 36.25V31.25H23.75V36.25H18.75ZM23.1761 19.5542C21.1053 21.1415 18.75 22.9468 18.75 27.5H23.75C23.75 24.7616 25.5275 23.2082 27.3519 21.6138C29.2749 19.9333 31.25 18.2073 31.25 15C31.25 9.475 26.775 5 21.25 5C15.725 5 11.25 9.475 11.25 15H16.25C16.25 12.25 18.5 10 21.25 10C24 10 26.25 12.25 26.25 15C26.25 17.198 24.8006 18.309 23.1761 19.5542Z" fill="#F3693F"/>
</svg>
