<svg width="24" height="24" viewBox="0 0 24 24" fill="none" xmlns="http://www.w3.org/2000/svg">
<path d="M20.8 2H3.2C2.00833 2 1 3.1 1 4.4V18.8C1 20.1 2.00833 21.2 3.2 21.2H20.8C21.9917 21.2 23 20.1 23 18.8V4.4C23 3.1 21.9917 2 20.8 2Z" fill="#CCD6DD"/>
<path d="M12.3378 17.3142H11.8104V13.5002L10.7528 13.924V13.4043L12.2556 12.7887H12.3378V17.3142Z" fill="#1D1D1D"/>
<path d="M16.5797 17.3142H13.8747V16.9028L15.3038 15.1706C15.5155 14.9087 15.661 14.6963 15.7404 14.5333C15.8217 14.3684 15.8624 14.1982 15.8624 14.023C15.8624 13.7879 15.7971 13.5951 15.6667 13.4445C15.5363 13.294 15.3624 13.2187 15.145 13.2187C14.8841 13.2187 14.6809 13.3002 14.5354 13.4631C14.3917 13.6239 14.3199 13.8487 14.3199 14.1374H13.7953C13.7953 13.7229 13.9172 13.3878 14.1611 13.1321C14.4068 12.8764 14.7348 12.7485 15.145 12.7485C15.5287 12.7485 15.8321 12.8589 16.0552 13.0795C16.2782 13.2981 16.3898 13.5899 16.3898 13.9549C16.3898 14.3983 16.1308 14.9262 15.6128 15.5387L14.507 16.8471H16.5797V17.3142Z" fill="#1D1D1D"/>
<path d="M17.8982 14.7839H18.2924C18.54 14.7798 18.7347 14.7086 18.8765 14.5705C19.0183 14.4323 19.0891 14.2457 19.0891 14.0106C19.0891 13.4827 18.8481 13.2187 18.3661 13.2187C18.1393 13.2187 17.9578 13.2899 17.8217 13.4321C17.6875 13.5724 17.6204 13.759 17.6204 13.992H17.0958C17.0958 13.6353 17.2149 13.3393 17.4531 13.1043C17.6931 12.8671 17.9975 12.7485 18.3661 12.7485C18.7555 12.7485 19.0608 12.8609 19.282 13.0857C19.5031 13.3105 19.6137 13.6229 19.6137 14.023C19.6137 14.2189 19.5551 14.4086 19.4379 14.5921C19.3226 14.7757 19.1648 14.9128 18.9644 15.0035C19.1912 15.0819 19.3661 15.2118 19.489 15.3933C19.6137 15.5747 19.6761 15.7964 19.6761 16.0583C19.6761 16.4625 19.5551 16.7832 19.3132 17.0203C19.0712 17.2575 18.7565 17.3761 18.3689 17.3761C17.9814 17.3761 17.6657 17.2616 17.4219 17.0327C17.1799 16.8038 17.0589 16.5017 17.0589 16.1264H17.5863C17.5863 16.3635 17.6572 16.5532 17.799 16.6955C17.9408 16.8378 18.1308 16.909 18.3689 16.909C18.6222 16.909 18.816 16.8368 18.9502 16.6924C19.0844 16.5481 19.1515 16.3408 19.1515 16.0707C19.1515 15.8088 19.0778 15.6077 18.9304 15.4675C18.7829 15.3273 18.5703 15.2551 18.2924 15.251H17.8982V14.7839Z" fill="#1D1D1D"/>
<path d="M23 4.7002H1V7.6002H23V4.7002Z" fill="#1D1D1D"/>
</svg>
