<svg width="30" height="30" viewBox="0 0 30 30" fill="none" xmlns="http://www.w3.org/2000/svg">
<path d="M14.4856 4.11382C10.0867 3.67973 5.82103 4.65474 2.93154 5.65709C1.67868 6.09172 0.985272 7.43165 1.3446 8.70814C1.73771 10.1051 3.22904 10.8804 4.59728 10.3965C8.95747 8.85488 20.3445 6.63367 27.6238 10.7154C27.6238 10.7154 24.5597 5.10801 14.4856 4.11382Z" fill="#F3693F"/>
<path d="M27.0022 16.4635C26.5112 17.458 25.3613 17.9147 24.3381 17.569C24.2601 17.4868 24.1725 17.396 24.0759 17.2982C24.299 17.2053 24.5156 17.0924 24.7234 16.9593C25.6549 16.3632 26.2984 15.4402 26.5356 14.3601L24.6317 13.9421C24.5062 14.5136 24.1657 15.002 23.6728 15.3174C23.2439 15.5919 22.7444 15.7065 22.2454 15.649C22.1664 15.5857 22.0858 15.522 22.0037 15.4582C23.0952 14.7194 23.8182 13.4738 23.8289 12.0592L21.8797 12.0444C21.8717 13.0927 21.1248 13.9656 20.1379 14.1721C17.9743 12.8695 15.7726 12.1879 13.6934 12.1879C11.1454 12.1879 8.4136 13.211 5.79325 15.1467C3.84844 16.5833 2.643 18.0129 2.59262 18.0731L2.06873 18.6987L2.59262 19.3243C2.643 19.3845 3.84849 20.814 5.79325 22.2507C8.4136 24.1864 11.1454 25.2095 13.6934 25.2095C16.2413 25.2095 18.9732 24.1864 21.5935 22.2507C23.0532 21.1725 24.0963 20.0982 24.5472 19.6039C24.7086 19.6231 24.8702 19.6331 25.0312 19.6331C26.5582 19.6331 28.0295 18.7855 28.75 17.3263L27.0022 16.4635ZM11.4192 22.946C8.32331 22.1089 5.76946 19.8135 4.66925 18.6978C5.76866 17.5798 8.32078 15.2818 11.4261 14.4482C9.9088 15.2592 8.87605 16.8582 8.87605 18.6989C8.87605 20.5368 9.90558 22.1338 11.4192 22.946ZM13.6933 19.8186C13.0749 19.8186 12.5736 19.3173 12.5736 18.6989C12.5736 18.0804 13.0749 17.5791 13.6933 17.5791C14.3116 17.5791 14.8129 18.0804 14.8129 18.6989C14.8129 19.3173 14.3116 19.8186 13.6933 19.8186ZM15.9605 22.9496C17.4778 22.1386 18.5105 20.5396 18.5105 18.6989C18.5105 16.861 17.4811 15.2641 15.9677 14.4518C19.063 15.2889 21.6165 17.5838 22.7174 18.6999C21.6179 19.818 19.0659 22.1161 15.9605 22.9496Z" fill="#F3693F"/>
</svg>
