<svg width="20" height="20" viewBox="0 0 20 20" fill="none" xmlns="http://www.w3.org/2000/svg">
<path d="M2.5 8.125C2.5 8.81535 3.05963 9.375 3.75 9.375H4.375V6.875H3.75C3.05963 6.875 2.5 7.43463 2.5 8.125Z" fill="#F3693F"/>
<path d="M15.625 3.75H14.8688C14.625 3.32188 14.325 2.93125 13.9781 2.58436C12.9594 1.56874 11.5531 0.9375 10 0.9375C6.89375 0.9375 4.375 3.45625 4.375 6.5625V6.875C6.62188 6.875 8.4375 5.33749 8.4375 3.4375C8.4375 5.33749 11.6531 6.875 15.625 6.875V9.375V11.25C15.625 13.15 17.1625 14.6875 19.0625 14.6875V7.1875C19.0625 5.28749 17.525 3.75 15.625 3.75ZM16.25 9.375V6.875C16.9404 6.875 17.5 7.43463 17.5 8.125C17.5 8.81535 16.9404 9.375 16.25 9.375Z" fill="#F3693F"/>
<path d="M7.50004 14.1C8.25316 14.475 9.10005 14.6875 10 14.6875C10.9 14.6875 11.7469 14.475 12.5 14.1C14.175 13.2687 15.375 11.6281 15.5907 9.6875H4.40942C4.62504 11.6281 5.82505 13.2687 7.50004 14.1Z" fill="#F3693F"/>
<path d="M7.8125 8.75C8.15768 8.75 8.4375 8.47018 8.4375 8.125C8.4375 7.77982 8.15768 7.5 7.8125 7.5C7.46732 7.5 7.1875 7.77982 7.1875 8.125C7.1875 8.47018 7.46732 8.75 7.8125 8.75Z" fill="#F3693F"/>
<path d="M12.1875 8.75C12.5327 8.75 12.8125 8.47018 12.8125 8.125C12.8125 7.77982 12.5327 7.5 12.1875 7.5C11.8423 7.5 11.5625 7.77982 11.5625 8.125C11.5625 8.47018 11.8423 8.75 12.1875 8.75Z" fill="#F3693F"/>
<path d="M9.99999 15.3126C9.1105 15.3126 8.26598 15.124 7.49999 14.7891V14.922C7.49999 15.2925 7.33663 15.6285 7.07393 15.8608L9.99999 17.4568L12.9261 15.8608C12.6634 15.6285 12.5 15.2925 12.5 14.922V14.7891C11.734 15.124 10.8895 15.3126 9.99999 15.3126Z" fill="#F3693F"/>
<path d="M0.9375 19.0625V19.375H9.6875V17.9979L6.3529 16.1792L3.49687 16.7813C2.3 17.0312 1.325 17.9 0.9375 19.0625Z" fill="#F3693F"/>
<path d="M16.5031 16.7813L13.6471 16.1792L10.3125 17.9979V19.375H19.0625V19.0625C18.8687 18.4813 18.5281 17.975 18.0875 17.5813C17.6438 17.1875 17.1 16.9062 16.5031 16.7813ZM15.9375 18.75H11.875V17.8125H15.9375V18.75Z" fill="#F3693F"/>
</svg>
