<svg width="30" height="30" viewBox="0 0 30 30" fill="none" xmlns="http://www.w3.org/2000/svg">
<path d="M7.39756 23.6045C7.65361 22.322 8.6478 21.3278 9.93027 21.071C10.2827 21.0006 10.6174 20.8777 10.9414 20.7309C12.3104 21.3219 14.2195 20.4818 15.447 19.2543C17.1894 17.5119 17.6443 15.2374 16.4827 14.0758C15.3233 12.915 13.0474 13.3691 11.3036 15.1115C9.87012 16.5456 9.32607 18.3314 9.81933 19.5693C9.7581 19.5853 9.70517 19.6224 9.64277 19.6348C7.77881 20.0081 6.3333 21.4537 5.96133 23.3169C5.70454 24.5994 3.78247 25.8077 2.5 26.0637L2.78755 27.4999C4.65078 27.128 7.02417 25.4684 7.39756 23.6045Z" fill="#F3693F"/>
<path d="M7.78949 11.7971C7.89877 11.2498 8.15009 10.7416 8.51117 10.3219C8.78886 10.4668 9.08954 10.5654 9.4224 10.5654C10.172 10.5654 11.0096 10.2049 11.6962 9.51897C12.8578 8.35667 13.0852 6.76453 12.214 5.89334C11.3435 5.02356 9.74994 5.25032 8.58837 6.41116C7.74911 7.25086 7.40595 8.31194 7.60399 9.16677C6.97582 9.81311 6.53065 10.6211 6.35321 11.5095C6.09716 12.792 5.10297 13.7862 3.8205 14.0422L4.10804 15.4784C5.97201 15.1059 7.41683 13.6611 7.78949 11.7971Z" fill="#F3693F"/>
<path d="M18.0721 23.2284C17.816 24.5108 16.8218 25.8078 15.5394 26.0638L15.8269 27.5001C17.6909 27.1274 19.1357 25.3798 19.5084 23.5159C19.6155 22.9787 19.8616 22.4807 20.2121 22.0655C21.1915 22.5879 22.5384 22.1135 23.4151 21.2378C24.5767 20.0755 24.8041 18.4834 23.9329 17.6122C23.0631 16.7417 21.4689 16.9684 20.3073 18.13C19.468 18.9697 19.1249 20.0308 19.3229 20.8856C18.6947 21.5319 18.2496 22.3399 18.0721 23.2284Z" fill="#F3693F"/>
<path d="M20.9082 9.82422C21.3127 9.82422 21.6406 9.4963 21.6406 9.0918C21.6406 8.68729 21.3127 8.35938 20.9082 8.35938C20.5037 8.35938 20.1758 8.68729 20.1758 9.0918C20.1758 9.4963 20.5037 9.82422 20.9082 9.82422Z" fill="#F3693F"/>
<path d="M21.6406 2.5C18.4098 2.5 15.7812 5.12856 15.7812 8.35938C15.7812 11.5902 18.4098 14.2188 21.6406 14.2188C24.8714 14.2188 27.5 11.5902 27.5 8.35938C27.5 5.12856 24.8714 2.5 21.6406 2.5ZM20.9082 11.2891C19.6966 11.2891 18.7109 10.3034 18.7109 9.0918C18.7109 7.88018 19.6966 6.89453 20.9082 6.89453C22.1198 6.89453 23.1055 7.88018 23.1055 9.0918C23.1055 10.3034 22.1198 11.2891 20.9082 11.2891Z" fill="#F3693F"/>
</svg>
