<svg width="20" height="20" viewBox="0 0 20 20" fill="none" xmlns="http://www.w3.org/2000/svg">
<g clip-path="url(#clip0)">
<path d="M9.99431 2.63625C5.63492 -1.17666 0.0920186 2.17347 0.00112711 6.71512C-0.0220352 7.87257 0.31208 9.00002 0.977147 10.0394H5.28791L6.05465 8.76148C6.27729 8.39046 6.81608 8.37851 7.05133 8.7484L8.66906 11.2905L11.0272 6.31234C11.2328 5.87795 11.8457 5.86417 12.0726 6.28538L14.094 10.0394H19.0115C22.6542 4.34612 15.4549 -2.13976 9.99431 2.63625Z" fill="#F3693F"/>
<path d="M13.2282 10.9033L11.5902 7.86133L9.27396 12.7512C9.0769 13.1672 8.4973 13.2033 8.25017 12.8149L6.57178 10.1775L6.12209 10.927C6.0162 11.1035 5.82551 11.2114 5.61971 11.2114H1.90405C2.02053 11.3333 1.39976 10.7138 9.58112 18.8528C9.80962 19.0802 10.179 19.0802 10.4075 18.8528C18.463 10.839 17.9684 11.3331 18.0846 11.2114H13.7441C13.5285 11.2115 13.3304 11.0931 13.2282 10.9033Z" fill="#F3693F"/>
</g>
<defs>
<clipPath id="clip0">
<rect width="20" height="20" fill="white"/>
</clipPath>
</defs>
</svg>
