<svg width="30" height="30" viewBox="0 0 30 30" fill="none" xmlns="http://www.w3.org/2000/svg">
<g clip-path="url(#clip0)">
<path d="M15.5237 22.9303C15.5237 22.1381 15.7427 21.2038 16.0853 20.2169H10.2734V28.75H18.3519C16.6306 27.3919 15.5237 25.288 15.5237 22.9303Z" fill="#F3693F"/>
<path d="M16.7253 18.6056C17.207 17.5114 17.7737 16.4116 18.3078 15.4173C19.5826 13.045 20.8364 11.0543 20.8893 10.9708L22.9333 7.73161L24.9774 10.9708C24.998 11.0036 25.2024 11.3284 25.5194 11.852L27.8594 13.7275L28.75 12.4701L24.2922 8.80352V1.25H18.6662V4.29432L15 1.35595L1.25 12.4701L2.14064 13.7275L4.48776 11.8464V27.1387H2.05566V28.75H8.66211V18.6056H16.7253ZM15 4.64533C17.815 4.64533 20.1051 6.93539 20.1051 9.75039C20.1051 12.5654 17.815 14.8554 15 14.8554C12.185 14.8554 9.89494 12.5654 9.89494 9.75039C9.89494 6.93539 12.185 4.64533 15 4.64533Z" fill="#F3693F"/>
<path d="M15 13.2441C16.9265 13.2441 18.4937 11.6768 18.4937 9.75038C18.4937 7.82392 16.9265 6.25665 15 6.25665C13.0736 6.25665 11.5063 7.82392 11.5063 9.75038C11.5063 11.6768 13.0736 13.2441 15 13.2441ZM12.7995 8.94472H14.1944V7.54991H15.8057V8.94472H17.2005V10.556H15.8057V11.9506H14.1944V10.556H12.7995V8.94472Z" fill="#F3693F"/>
<path d="M26.0427 15.9492C24.7269 13.5036 22.9314 10.6574 22.9314 10.6574C22.9314 10.6574 21.1359 13.5036 19.8202 15.9492C18.0236 19.2885 17.1128 21.6398 17.1128 22.9381C17.1128 26.1429 19.723 28.75 22.9314 28.75C26.1398 28.75 28.75 26.1429 28.75 22.9383C28.75 21.6398 27.839 19.2885 26.0427 15.9492Z" fill="#F3693F"/>
</g>
<defs>
<clipPath id="clip0">
<rect width="27.5" height="27.5" fill="white" transform="translate(1.25 1.25)"/>
</clipPath>
</defs>
</svg>
