<svg width="20" height="20" viewBox="0 0 20 20" fill="none" xmlns="http://www.w3.org/2000/svg">
<path fill-rule="evenodd" clip-rule="evenodd" d="M1.66663 10C1.66663 5.40002 5.39163 1.66669 9.99163 1.66669C14.6 1.66669 18.3333 5.40002 18.3333 10C18.3333 14.6 14.6 18.3334 9.99163 18.3334C5.39163 18.3334 1.66663 14.6 1.66663 10ZM13.3083 6.66669H15.7666C14.9666 5.29169 13.6916 4.22502 12.1583 3.70002C12.6583 4.62502 13.0416 5.62502 13.3083 6.66669ZM9.99996 3.36669C10.6916 4.36669 11.2333 5.47502 11.5916 6.66669H8.40829C8.76663 5.47502 9.30829 4.36669 9.99996 3.36669ZM3.33329 10C3.33329 10.575 3.41663 11.1334 3.54996 11.6667H6.36663C6.29996 11.1167 6.24996 10.5667 6.24996 10C6.24996 9.43335 6.29996 8.88335 6.36663 8.33335H3.54996C3.41663 8.86669 3.33329 9.42502 3.33329 10ZM4.23329 13.3334H6.69163C6.95829 14.375 7.34163 15.375 7.84163 16.3C6.30829 15.775 5.03329 14.7167 4.23329 13.3334ZM4.23329 6.66669H6.69163C6.95829 5.62502 7.34163 4.62502 7.84163 3.70002C6.30829 4.22502 5.03329 5.28335 4.23329 6.66669ZM9.99996 16.6334C9.30829 15.6334 8.76663 14.525 8.40829 13.3334H11.5916C11.2333 14.525 10.6916 15.6334 9.99996 16.6334ZM7.91663 10C7.91663 10.5667 7.97496 11.1167 8.04996 11.6667H11.95C12.025 11.1167 12.0833 10.5667 12.0833 10C12.0833 9.43335 12.025 8.87502 11.95 8.33335H8.04996C7.97496 8.87502 7.91663 9.43335 7.91663 10ZM12.1583 16.3C12.6583 15.375 13.0416 14.375 13.3083 13.3334H15.7666C14.9666 14.7084 13.6916 15.775 12.1583 16.3ZM13.75 10C13.75 10.5667 13.7 11.1167 13.6333 11.6667H16.45C16.5833 11.1334 16.6666 10.575 16.6666 10C16.6666 9.42502 16.5833 8.86669 16.45 8.33335H13.6333C13.7 8.88335 13.75 9.43335 13.75 10Z" fill="#75767A"/>
</svg>
