<svg width="135" height="48" viewBox="0 0 135 48" fill="none" xmlns="http://www.w3.org/2000/svg">
<path d="M96.2402 13.862L97.1532 7.88695C95.2104 6.82603 92.4716 5.96167 89.3387 5.96167C83.1491 5.96167 79.7772 9.18483 79.7772 13.3127C79.7772 17.7153 83.7849 18.9728 86.5618 19.9179C88.2274 20.5076 89.5371 20.9788 89.5371 21.8432C89.5371 22.5514 88.7029 23.2596 86.9585 23.2596C84.4995 23.2596 81.008 21.8432 78.7854 19.8775L77.7937 26.4046C80.0951 28.0956 83.4263 29.1162 86.9585 29.1162C93.1074 29.1162 96.5989 26.1273 96.5989 21.9213C96.5989 17.4783 92.8302 15.9839 89.7762 14.923C88.0698 14.3333 86.8417 13.9401 86.8417 13.1135C86.8417 12.4053 87.7139 11.8156 89.461 11.8156C91.9961 11.8183 94.6127 12.9573 96.2402 13.862Z" fill="#FF0000"/>
<path d="M17.971 6.54868L17.5471 8.49281C16.3706 6.19325 12.8764 5.95898 10.9907 5.95898C5.11633 5.95898 0 11.5032 0 19.1317C0 25.2656 3.72788 29.1162 8.40947 29.1162C11.0206 29.1162 13.2405 28.5157 15.0746 26.375L14.5963 28.5265H15.6669H21.9733L25.3507 6.54868H17.971ZM11.8276 21.7678C9.31156 21.7678 7.37969 19.8425 7.37969 17.3814C7.37969 14.9634 9.31156 12.995 11.8276 12.995C14.254 12.995 16.2321 14.9634 16.2321 17.3814C16.2321 19.8425 14.254 21.7678 11.8276 21.7678Z" fill="#FF0000"/>
<path d="M72.2128 6.54868H71.4602L71.0363 8.49281C69.8598 6.19325 66.3656 5.95898 64.4799 5.95898C58.6082 5.95898 53.4919 11.5032 53.4919 19.129C53.4919 25.2629 57.2198 29.1135 61.9014 29.1135C64.5125 29.1135 66.7324 28.513 68.5664 26.3723L68.0882 28.5238H69.1588H75.4652L78.8371 6.54599H72.2128V6.54868ZM65.3168 21.7678C62.8007 21.7678 60.8689 19.8425 60.8689 17.3814C60.8689 14.9634 62.8007 12.995 65.3168 12.995C67.7432 12.995 69.7212 14.9634 69.7212 17.3814C69.7185 19.8425 67.7432 21.7678 65.3168 21.7678Z" fill="#FF0000"/>
<path d="M127.623 6.54868H126.87L126.446 8.49281C125.27 6.19325 121.776 5.95898 119.89 5.95898C114.018 5.95898 108.902 11.5032 108.902 19.129C108.902 25.2629 112.63 29.1135 117.312 29.1135C119.923 29.1135 122.143 28.513 123.977 26.3723L123.498 28.5238H124.569H130.875L134.247 6.54599H127.623V6.54868ZM120.727 21.7678C118.211 21.7678 116.279 19.8425 116.279 17.3814C116.279 14.9634 118.211 12.995 120.727 12.995C123.153 12.995 125.131 14.9634 125.131 17.3814C125.131 19.8425 123.153 21.7678 120.727 21.7678Z" fill="#FF0000"/>
<path d="M32.4505 7.37527C34.5034 7.37527 36.1675 5.72607 36.1675 3.69167C36.1675 1.65726 34.5034 0.00805664 32.4505 0.00805664C30.3977 0.00805664 28.7335 1.65726 28.7335 3.69167C28.7335 5.72607 30.3977 7.37527 32.4505 7.37527Z" fill="#FF0000"/>
<path d="M32.4424 8.79683C30.8583 8.79683 29.4427 8.08596 28.4971 6.97388L25.1904 28.5289H32.5701L35.7844 7.57435C34.885 8.33369 33.7194 8.79683 32.4424 8.79683Z" fill="#FF0000"/>
<path d="M49.7369 13.8377C51.7897 13.8377 53.4539 12.1885 53.4539 10.1541C53.4539 8.11967 51.7897 6.47046 49.7369 6.47046C47.684 6.47046 46.0198 8.11967 46.0198 10.1541C46.0198 12.1885 47.684 13.8377 49.7369 13.8377Z" fill="#FF0000"/>
<path d="M44.5852 10.1539C44.5852 8.74558 45.1585 7.47193 46.0877 6.54834H39.1129L35.741 28.5261H43.1207L45.4954 13.0512C44.9221 12.2272 44.5852 11.2309 44.5852 10.1539Z" fill="#FF0000"/>
<path d="M105.079 7.36722C107.132 7.36722 108.796 5.71801 108.796 3.68361C108.796 1.64921 107.132 0 105.079 0C103.026 0 101.362 1.64921 101.362 3.68361C101.362 5.71801 103.026 7.36722 105.079 7.36722Z" fill="#FF0000"/>
<path d="M105.079 8.78911C103.438 8.78911 101.979 8.02439 101.033 6.8396L97.7048 28.5266H105.085L108.283 7.67703C107.405 8.37174 106.294 8.78911 105.079 8.78911Z" fill="#FF0000"/>
<path d="M44.1396 47.7521L45.0335 42.0113C45.0525 41.8875 45.0525 41.7447 45.0525 41.6397C45.0525 40.7538 44.5335 40.2584 43.7103 40.2584C42.5827 40.2584 41.8518 41.0743 41.7077 42.1002L40.8301 47.7521H37.969L40.1671 33.5212H43.0283L42.1534 38.9605H42.1887C42.743 38.3412 43.6016 37.6842 44.9955 37.6842C46.767 37.6842 48.0359 38.8178 48.0359 40.6246C48.0359 40.8373 48.0169 41.05 47.9816 41.2789L46.998 47.7468H44.1396V47.7521Z" fill="#1D1D1B"/>
<path d="M58.7304 43.6403H52.1143C52.2936 45.0755 53.3669 45.7676 54.8857 45.7676C55.9237 45.7676 57.0839 45.466 58.0865 44.9005L57.6762 47.2566C56.7633 47.7171 55.5134 47.9998 54.3314 47.9998C51.3643 47.9998 49.4868 46.228 49.4868 43.3738C49.4868 40.2018 51.848 37.6841 54.8694 37.6841C57.4616 37.6841 59.0348 39.5797 59.0348 41.812C59.0348 42.5417 58.8745 43.1987 58.7304 43.6403ZM56.478 41.5508C56.478 40.576 55.7443 39.9217 54.7254 39.9217C53.5462 39.9217 52.6332 40.7888 52.2583 41.9601H56.4236C56.4589 41.8174 56.478 41.6908 56.478 41.5508Z" fill="#1D1D1B"/>
<path d="M69.7456 47.7523H67.3138L67.2948 46.2282C66.4009 47.3807 65.3276 48 63.9881 48C61.9149 48 60.1977 46.2821 60.1977 43.5517C60.1977 40.1481 62.4855 37.687 65.1157 37.687C66.5449 37.687 67.6371 38.379 68.2077 39.4777L68.7267 37.9347H71.2645L69.7456 47.7523ZM63.0588 43.2151C63.0588 44.6153 63.9527 45.4662 65.132 45.4662C66.7242 45.4662 67.7241 43.961 67.7241 42.4531C67.7241 41.0879 66.8492 40.237 65.6672 40.237C64.1484 40.2397 63.0588 41.6049 63.0588 43.2151Z" fill="#1D1D1B"/>
<path d="M74.3403 33.5239H77.2014L75.0033 47.7548H72.1394L74.3403 33.5239Z" fill="#1D1D1B"/>
<path d="M82.0271 47.9112C79.8099 47.9112 78.4867 46.7775 78.4867 44.8092C78.4867 44.5426 78.5057 44.2599 78.5573 43.9771L79.1306 40.2747H77.7177L78.0764 37.9347H79.4893L79.8479 35.6675H82.6384L82.2798 37.9347H84.9806L84.6056 40.2747H81.9401L81.4048 43.6944C81.3858 43.8721 81.3695 44.0121 81.3695 44.1549C81.3695 45.0758 81.9428 45.4312 82.8884 45.4312C83.3177 45.4312 83.8883 45.3423 84.3366 45.1996L83.9616 47.6284C83.5649 47.7873 82.7797 47.9112 82.0271 47.9112Z" fill="#1D1D1B"/>
<path d="M91.6483 47.7521L92.5422 42.0113C92.5613 41.8875 92.5613 41.7447 92.5613 41.6397C92.5613 40.7538 92.0423 40.2584 91.219 40.2584C90.0914 40.2584 89.3605 41.0743 89.2165 42.1002L88.3416 47.7521H85.4805L87.6786 33.5212H90.5397L89.6648 38.9605H89.7001C90.2544 38.3412 91.113 37.6842 92.5069 37.6842C94.2785 37.6842 95.5474 38.8178 95.5474 40.6246C95.5474 40.8373 95.5284 41.05 95.493 41.2789L94.5094 47.7468H91.6483V47.7521Z" fill="#1D1D1B"/>
</svg>
