<svg width="20" height="20" viewBox="0 0 20 20" fill="none" xmlns="http://www.w3.org/2000/svg">
<path d="M0 14.9609C0 17.3841 1.97141 19.3555 4.39453 19.3555H9.41406V10.5664H4.39453C1.97141 10.5664 0 12.5378 0 14.9609Z" fill="#F3693F"/>
<path d="M15.6055 10.5664H10.5859V15.8398H14.1016V17.0117H10.5859V19.3555H15.6055C18.0286 19.3555 20 17.3841 20 14.9609C20 12.5378 18.0286 10.5664 15.6055 10.5664Z" fill="#F3693F"/>
<path d="M10.5859 9.0626H12.5C13.9019 9.0626 15.2734 7.88658 15.2734 6.13623H12.3047C11.9531 6.13623 10.5859 6.32822 10.5859 7.89072V9.0626Z" fill="#F3693F"/>
<path d="M7.69531 6.13623H4.72656C4.7266 7.88658 6.09812 9.0626 7.5 9.0626H9.41406C9.41406 7.82615 9.41406 8.98006 9.41406 7.89072C9.41406 6.32818 8.04688 6.13623 7.69531 6.13623Z" fill="#F3693F"/>
<path d="M12.3424 4.961C12.3152 3.38787 11.5987 1.92584 10.3664 0.937871L9.99992 0.644043L9.6334 0.937871C8.4011 1.9258 7.6847 3.38787 7.65747 4.961C7.7072 4.96006 9.23149 4.94115 9.99992 6.09381C10.7684 4.94115 12.2926 4.96006 12.3424 4.961Z" fill="#F3693F"/>
</svg>
