<svg width="32" height="32" viewBox="0 0 32 32" fill="none" xmlns="http://www.w3.org/2000/svg">
<rect x="0.5" y="0.5" width="31" height="31" rx="3.5" fill="white"/>
<mask id="path-2-inside-1" fill="white">
<path fill-rule="evenodd" clip-rule="evenodd" d="M15.5 9C15.2239 9 15 9.22386 15 9.5V15H9.5C9.22386 15 9 15.2239 9 15.5V16.5C9 16.7761 9.22386 17 9.5 17H15V22.5C15 22.7761 15.2239 23 15.5 23H16.5C16.7761 23 17 22.7761 17 22.5V17H22.5C22.7761 17 23 16.7761 23 16.5V15.5C23 15.2239 22.7761 15 22.5 15H17V9.5C17 9.22386 16.7761 9 16.5 9H15.5Z"/>
</mask>
<path fill-rule="evenodd" clip-rule="evenodd" d="M15.5 9C15.2239 9 15 9.22386 15 9.5V15H9.5C9.22386 15 9 15.2239 9 15.5V16.5C9 16.7761 9.22386 17 9.5 17H15V22.5C15 22.7761 15.2239 23 15.5 23H16.5C16.7761 23 17 22.7761 17 22.5V17H22.5C22.7761 17 23 16.7761 23 16.5V15.5C23 15.2239 22.7761 15 22.5 15H17V9.5C17 9.22386 16.7761 9 16.5 9H15.5Z" fill="#C5C9D0"/>
<path d="M15 15V16H16V15H15ZM15 17H16V16H15V17ZM17 17V16H16V17H17ZM17 15H16V16H17V15ZM16 9.5C16 9.77614 15.7761 10 15.5 10V8C14.6716 8 14 8.67157 14 9.5H16ZM16 15V9.5H14V15H16ZM9.5 16H15V14H9.5V16ZM10 15.5C10 15.7761 9.77614 16 9.5 16V14C8.67157 14 8 14.6716 8 15.5H10ZM10 16.5V15.5H8V16.5H10ZM9.5 16C9.77614 16 10 16.2239 10 16.5H8C8 17.3284 8.67157 18 9.5 18V16ZM15 16H9.5V18H15V16ZM16 22.5V17H14V22.5H16ZM15.5 22C15.7761 22 16 22.2239 16 22.5H14C14 23.3284 14.6716 24 15.5 24V22ZM16.5 22H15.5V24H16.5V22ZM16 22.5C16 22.2239 16.2239 22 16.5 22V24C17.3284 24 18 23.3284 18 22.5H16ZM16 17V22.5H18V17H16ZM22.5 16H17V18H22.5V16ZM22 16.5C22 16.2239 22.2239 16 22.5 16V18C23.3284 18 24 17.3284 24 16.5H22ZM22 15.5V16.5H24V15.5H22ZM22.5 16C22.2239 16 22 15.7761 22 15.5H24C24 14.6716 23.3284 14 22.5 14V16ZM17 16H22.5V14H17V16ZM16 9.5V15H18V9.5H16ZM16.5 10C16.2239 10 16 9.77614 16 9.5H18C18 8.67157 17.3284 8 16.5 8V10ZM15.5 10H16.5V8H15.5V10Z" fill="#ED5E33" mask="url(#path-2-inside-1)"/>
<rect x="0.5" y="0.5" width="31" height="31" rx="3.5" stroke="#ED5E33"/>
</svg>
