<svg width="20" height="20" viewBox="0 0 20 20" fill="none" xmlns="http://www.w3.org/2000/svg">
<g clip-path="url(#clip0)">
<path d="M3.91805 16.8835C4.12289 15.8575 4.91824 15.0622 5.94422 14.8567C6.22617 14.8004 6.49391 14.7021 6.75309 14.5847C7.84836 15.0574 9.37562 14.3853 10.3576 13.4033C11.7515 12.0094 12.1154 10.1898 11.1862 9.26056C10.2586 8.33189 8.43789 8.69521 7.04285 10.0891C5.89609 11.2364 5.46086 12.6651 5.85547 13.6554C5.80648 13.6682 5.76414 13.6978 5.71422 13.7077C4.22305 14.0064 3.06664 15.1628 2.76906 16.6534C2.56363 17.6794 1.02598 18.646 0 18.8509L0.230039 19.9999C1.72063 19.7023 3.61934 18.3747 3.91805 16.8835Z" fill="#F3693F"/>
<path d="M4.23159 7.43743C4.31901 6.99962 4.52007 6.59306 4.80894 6.25732C5.03108 6.37318 5.27163 6.45208 5.53792 6.45208C6.13761 6.45208 6.80765 6.16368 7.35694 5.61493C8.2862 4.68509 8.46815 3.41138 7.7712 2.71443C7.07483 2.01861 5.79995 2.20001 4.87069 3.12868C4.19929 3.80044 3.92476 4.64931 4.08319 5.33318C3.58065 5.85025 3.22452 6.49661 3.08257 7.20736C2.87772 8.23333 2.08237 9.02868 1.0564 9.23353L1.28644 10.3825C2.77761 10.0845 3.93347 8.92861 4.23159 7.43743Z" fill="#F3693F"/>
<path d="M12.4576 16.5828C12.2527 17.6088 11.4574 18.6463 10.4314 18.8512L10.6614 20.0001C12.1526 19.702 13.3085 18.304 13.6066 16.8128C13.6923 16.3831 13.8892 15.9847 14.1696 15.6525C14.9531 16.0704 16.0307 15.6909 16.732 14.9903C17.6612 14.0605 17.8432 12.7868 17.1462 12.0898C16.4504 11.3935 15.175 11.5748 14.2457 12.5041C13.5743 13.1758 13.2998 14.0247 13.4582 14.7086C12.9557 15.2257 12.5996 15.872 12.4576 16.5828Z" fill="#F3693F"/>
<path d="M14.7266 5.85938C15.0502 5.85938 15.3125 5.59704 15.3125 5.27344C15.3125 4.94983 15.0502 4.6875 14.7266 4.6875C14.403 4.6875 14.1406 4.94983 14.1406 5.27344C14.1406 5.59704 14.403 5.85938 14.7266 5.85938Z" fill="#F3693F"/>
<path d="M15.3125 0C12.7279 0 10.625 2.10285 10.625 4.6875C10.625 7.27215 12.7279 9.375 15.3125 9.375C17.8971 9.375 20 7.27215 20 4.6875C20 2.10285 17.8971 0 15.3125 0ZM14.7266 7.03125C13.7573 7.03125 12.9688 6.24273 12.9688 5.27344C12.9688 4.30414 13.7573 3.51562 14.7266 3.51562C15.6959 3.51562 16.4844 4.30414 16.4844 5.27344C16.4844 6.24273 15.6959 7.03125 14.7266 7.03125Z" fill="#F3693F"/>
</g>
<defs>
<clipPath id="clip0">
<rect width="20" height="20" fill="white"/>
</clipPath>
</defs>
</svg>
