<svg width="30" height="30" viewBox="0 0 30 30" fill="none" xmlns="http://www.w3.org/2000/svg">
<path d="M6.85733 9.63255C7.7319 8.9082 8.74806 8.35528 9.84732 7.99378V5.2894H5V11.7821C5.48053 10.9809 6.10433 10.2562 6.85733 9.63255Z" fill="#F3693F"/>
<path d="M16.8165 9.05959H16.3105V9.53474C16.3105 11.1806 16.8686 12.431 17.9695 13.2512C19.4949 14.3879 21.6349 14.3392 23.1629 13.1671C22.6751 12.1021 21.8985 11.1642 20.8946 10.4478C19.7124 9.60427 18.3121 9.11636 16.8165 9.02011V9.05959H16.8165Z" fill="#F3693F"/>
<path d="M7.04551 14.1763C8.59046 14.1763 9.84737 12.9194 9.84737 11.3744V9.60007C9.12431 9.89231 8.4543 10.2871 7.86374 10.7763C6.76431 11.6869 6.00161 12.8573 5.64215 14.1763H7.04551Z" fill="#F3693F"/>
<path d="M20.7862 15.6878C20.6873 15.6928 20.5884 15.6953 20.4897 15.6953C19.2325 15.6953 18.005 15.2927 17.0041 14.5469C16.7529 14.3598 16.5218 14.1554 16.3104 13.9356V14.2495C16.3104 16.244 17.0871 18.1192 18.4975 19.5295L17.3549 20.672C15.6394 18.9565 14.6946 16.6756 14.6946 14.2495V9.53481V9.0015H12.9768C12.4629 9.0015 11.9562 9.04733 11.4631 9.13582V11.3744C11.4631 13.8104 9.48132 15.7921 7.04543 15.7921H5.41404C5.40316 16.6387 5.56075 17.4798 5.88493 18.2842C5.88493 18.2842 10.4433 27.1613 10.7484 27.4638C11.6467 28.2939 12.7835 28.75 14.0241 28.75C15.7126 28.75 17.2899 27.8927 18.1414 26.5114C18.1414 26.5114 23.3157 18.0549 23.4326 17.8059C23.7483 16.8315 23.8287 15.8002 23.6597 14.7857C22.7966 15.3214 21.8043 15.6365 20.7862 15.6878Z" fill="#F3693F"/>
<path d="M11.4632 7.14492V7.44384H19.5421V4.47803H14.1301C12.6596 4.47803 11.4632 5.67435 11.4632 7.14492Z" fill="#F3693F"/>
<path d="M14.1301 2.86222H16.3105V1.25H11.4632V3.79759C12.1955 3.21295 13.1224 2.86222 14.1301 2.86222Z" fill="#F3693F"/>
<path d="M21.8129 9.23649C22.8396 9.96914 23.672 10.8936 24.2655 11.9417L26.5798 9.62751L23.0737 5.73187L20.3986 8.4069C20.8925 8.64022 21.3654 8.91721 21.8129 9.23649Z" fill="#F3693F"/>
</svg>
