<svg width="18" height="20" viewBox="0 0 18 20" fill="none" xmlns="http://www.w3.org/2000/svg">
<path d="M13.7128 5.90561C13.602 5.7346 13.4677 5.61803 13.3426 5.53916C13.342 5.32688 13.328 5.02667 13.2775 4.68044C13.3116 4.26732 13.4308 1.99257 12.039 0.96696C11.1806 0.334337 10.2247 0 9.27476 0C8.50269 0 7.7674 0.219414 7.20423 0.6178C6.69705 0.976659 6.41771 1.36699 6.26984 1.64176C5.83248 1.65723 4.92637 1.83556 4.5256 2.99091C4.14643 4.08378 4.45259 4.75895 4.67776 5.07187C4.66303 5.25286 4.65773 5.41197 4.65736 5.53907C4.53228 5.61794 4.39796 5.73451 4.28716 5.90552C4.03645 6.29247 3.99381 6.81136 4.16034 7.4481C4.47171 8.63868 5.1983 8.90073 5.58598 8.95334C5.82479 9.43079 6.34963 10.4065 6.87483 10.8968C7.08464 11.0926 7.3574 11.2578 7.68551 11.3881C8.1043 11.5543 8.54661 11.6386 8.99999 11.6386C9.45336 11.6386 9.89567 11.5543 10.3145 11.3881C10.6426 11.2578 10.9153 11.0926 11.1251 10.8968C11.6503 10.4065 12.1752 9.43079 12.414 8.95334C12.8016 8.90073 13.5282 8.63859 13.8396 7.44801C14.0062 6.81145 13.9635 6.29247 13.7128 5.90561ZM12.9544 7.21661C12.7646 7.94237 12.4254 8.05071 12.2401 8.05071C12.2269 8.05071 12.217 8.04998 12.2111 8.04952C11.9994 7.99599 11.8036 8.10725 11.711 8.30645C11.5298 8.69587 10.9591 9.80026 10.5008 10.228C10.3748 10.3456 10.1985 10.4499 9.97692 10.5378C9.35509 10.7846 8.64479 10.7846 8.02305 10.5378C7.80144 10.4499 7.62512 10.3456 7.49913 10.228C7.0409 9.80026 6.47013 8.69587 6.28897 8.30645C6.21192 8.14083 6.06379 8.03625 5.89424 8.03625C5.85984 8.03625 5.82452 8.04055 5.78874 8.04961C5.78289 8.05016 5.773 8.0508 5.75992 8.0508C5.57464 8.0508 5.23545 7.94237 5.04559 7.21679C4.95217 6.85967 4.95299 6.57483 5.04778 6.41489C5.10296 6.32193 5.18128 6.29064 5.2069 6.28259C5.45239 6.25596 5.60026 6.04103 5.57976 5.79334C5.5793 5.7873 5.56329 5.57466 5.5836 5.25103C5.89845 5.1157 6.40151 4.8488 6.82561 4.39076C7.04145 4.15752 7.19938 3.87177 7.31183 3.60963C7.61844 3.85997 8.05251 4.15414 8.62685 4.40832C9.61056 4.84367 11.5765 5.05074 12.4064 5.12146C12.4407 5.51647 12.4207 5.78602 12.4201 5.79243C12.3985 6.04084 12.5467 6.25596 12.793 6.28259C12.8186 6.29064 12.8969 6.32202 12.9521 6.41489C13.047 6.57474 13.0478 6.85958 12.9544 7.21661ZM15.8882 13.3268L11.8883 11.7269C11.7732 11.681 11.6445 11.6837 11.5312 11.7343C11.4181 11.7851 11.3304 11.8796 11.2883 11.9961L10.2828 14.7761L10.0837 14.2036L10.4005 13.4293C10.4581 13.2882 10.4418 13.1276 10.3568 13.001C10.2718 12.8744 10.1294 12.7985 9.97701 12.7985H8.02305C7.87062 12.7985 7.72815 12.8744 7.64324 13.001C7.55824 13.1276 7.54195 13.2882 7.5996 13.4293L7.91636 14.2036L7.71726 14.7761L6.71178 11.9961C6.66969 11.8796 6.58195 11.785 6.46885 11.7343C6.35558 11.6836 6.22675 11.6809 6.11173 11.7269L2.11177 13.3268C0.883489 13.8181 0.0898285 14.9904 0.0898285 16.3134V19.5425C0.0898285 19.7952 0.294694 20 0.547323 20H17.4527C17.7053 20 17.9101 19.7952 17.9101 19.5425V16.3134C17.9101 14.9904 17.1165 13.8182 15.8882 13.3268ZM15.7492 17.6335C15.7492 17.8862 15.5443 18.091 15.2917 18.091H12.2201C11.9675 18.091 11.7626 17.8862 11.7626 17.6335V16.207C11.7626 15.9543 11.9675 15.7495 12.2201 15.7495H15.2917C15.5443 15.7495 15.7492 15.9543 15.7492 16.207V17.6335Z" fill="#F3693F"/>
</svg>
