<svg width="20" height="20" viewBox="0 0 20 20" fill="none" xmlns="http://www.w3.org/2000/svg">
<path fill-rule="evenodd" clip-rule="evenodd" d="M10.0001 1.66675C5.40008 1.66675 1.66675 5.40008 1.66675 10.0001C1.66675 14.6001 5.40008 18.3334 10.0001 18.3334C14.6001 18.3334 18.3334 14.6001 18.3334 10.0001C18.3334 5.40008 14.6001 1.66675 10.0001 1.66675ZM9.16675 16.6084C5.87508 16.2001 3.33341 13.4001 3.33341 10.0001C3.33341 9.48341 3.40008 8.99175 3.50841 8.50841L7.50008 12.5001V13.3334C7.50008 14.2501 8.25008 15.0001 9.16675 15.0001V16.6084ZM13.3334 13.3334C14.0834 13.3334 14.7001 13.8167 14.9167 14.4917C16.0001 13.3084 16.6667 11.7334 16.6667 10.0001C16.6667 7.20842 14.9417 4.81675 12.5001 3.82508V4.16675C12.5001 5.08341 11.7501 5.83342 10.8334 5.83342H9.16675V7.50008C9.16675 7.95842 8.79175 8.33342 8.33341 8.33342H6.66675V10.0001H11.6667C12.1251 10.0001 12.5001 10.3751 12.5001 10.8334V13.3334H13.3334Z" fill="#75767A"/>
</svg>
